<svg xmlns="http://www.w3.org/2000/svg" xmlns:xlink="http://www.w3.org/1999/xlink" width="60" height="60" viewBox="0 0 60 60">
  <defs>
    <clipPath id="clip-path">
      <rect id="Rectangle_2" data-name="Rectangle 2" width="51.381" height="51.372" fill="#f68121"/>
    </clipPath>
  </defs>
  <g id="ai_ml_icon" transform="translate(-246 -116)">
    <g id="Rectangle_1" data-name="Rectangle 1" transform="translate(246 116)" fill="#fff" stroke="#707070" stroke-width="1" opacity="0">
      <rect width="60" height="60" stroke="none"/>
      <rect x="0.5" y="0.5" width="59" height="59" fill="none"/>
    </g>
    <g id="Group_2" data-name="Group 2" transform="translate(250.31 120.314)">
      <g id="Group_1" data-name="Group 1" clip-path="url(#clip-path)">
        <path id="Path_1" data-name="Path 1" d="M0,25.392v-1a2.81,2.81,0,0,1,1.471-1.8.474.474,0,0,0,.16-.365q.016-2.327,0-4.654c0-.129-.066-.332-.16-.375A2.912,2.912,0,0,1,0,15.461v-1.1c.032-.034.078-.063.094-.1A2.475,2.475,0,0,1,3.061,12.5a.642.642,0,0,0,.47-.239C4.619,10.929,5.7,9.588,6.753,8.23a.739.739,0,0,0,.079-.611,2.489,2.489,0,0,1,3.733-3,.593.593,0,0,0,.464.113c1.306-.628,2.6-1.283,3.882-1.923a2.552,2.552,0,0,1,1.823-2.7,2.5,2.5,0,0,1,2.93,1.349.514.514,0,0,0,.4.187q4.388.016,8.776,0a.582.582,0,0,0,.417-.243A2.528,2.528,0,0,1,31.925.042a2.561,2.561,0,0,1,2.056,2.3.771.771,0,0,0,.322.522q2.938,1.394,5.9,2.729a.57.57,0,0,0,.474-.05,2.535,2.535,0,0,1,3.069-.057,2.48,2.48,0,0,1,.768,3.006.552.552,0,0,0,.029.485q1.655,2.11,3.352,4.186a.577.577,0,0,0,.457.165,2.488,2.488,0,0,1,1.667,4.642.633.633,0,0,0-.278.445q-.027,3.133,0,6.267a.635.635,0,0,0,.269.452,2.482,2.482,0,0,1-2.123,4.485.567.567,0,0,0-.473.065q-2.943,2.419-5.856,4.875a.681.681,0,0,0-.188.542,2.422,2.422,0,0,1-1.21,2.675.668.668,0,0,0-.385.709q.013,3.785,0,7.571a.689.689,0,0,0,.4.7,2.315,2.315,0,0,1,1.247,2.236A2.42,2.42,0,0,1,40,51.133l-.47.238h-1.1c-.024-.022-.045-.056-.074-.065a2.426,2.426,0,0,1-1.888-2.263,2.4,2.4,0,0,1,1.447-2.421.461.461,0,0,0,.194-.346q.017-4.009,0-8.018a.509.509,0,0,0-.222-.377,2.573,2.573,0,0,1-1.418-1.945.515.515,0,0,0-.291-.331c-2.365-.8-4.735-1.592-7.14-2.4-.291.874-.56,1.73-.865,2.572a.551.551,0,0,0,.146.657,2.421,2.421,0,0,1-.606,3.837.6.6,0,0,0-.351.624q.019,2.581,0,5.161a.682.682,0,0,0,.4.7A2.3,2.3,0,0,1,28.988,49a2.381,2.381,0,0,1-1.337,2.086c-.185.1-.375.189-.562.284h-1.1c-.1-.047-.2-.1-.31-.139a2.487,2.487,0,0,1-1.593-2.842,2.548,2.548,0,0,1,1.6-1.867c0-1.929.007-3.85-.013-5.77a.628.628,0,0,0-.3-.421,2.658,2.658,0,0,1-1.306-1.752.666.666,0,0,0-.4-.391c-2.11-.622-4.227-1.216-6.339-1.831a.57.57,0,0,0-.657.179,2.325,2.325,0,0,1-2.039.726,2.352,2.352,0,0,1-2.03-1.568,2.418,2.418,0,0,1,.448-2.53.567.567,0,0,0,.107-.462q-.656-1.729-1.37-3.436a.568.568,0,0,0-.4-.261A2.526,2.526,0,0,1,9.222,27.25a.672.672,0,0,0-.423-.365c-1.258-.253-2.525-.462-3.784-.712a.535.535,0,0,0-.621.238,2.459,2.459,0,0,1-3.279.53A3.177,3.177,0,0,1,0,25.392M23.9,8.423c-1.672-1.254-3.3-2.479-4.932-3.687a.524.524,0,0,0-.441-.012,2.51,2.51,0,0,1-2.65-.256.512.512,0,0,0-.434-.042q-1.8.873-3.578,1.79a.515.515,0,0,0-.243.36A2.627,2.627,0,0,1,10.484,8.7a.568.568,0,0,0-.184.439c.059.681.151,1.359.241,2.037.108.821.226,1.641.345,2.5,1.893-.1,3.743-.2,5.591-.312.115-.007.255-.178.322-.3A2.262,2.262,0,0,1,19.472,11.7c.75.215,1.064-.132,1.48-.516l.33-.307L23.9,8.423M46.583,28.212l-.06-.2c-.286-.038-.572-.085-.859-.112q-3.09-.287-6.18-.566c-2.077-.187-4.154-.374-6.233-.541a.618.618,0,0,0-.487.2,2.694,2.694,0,0,1-1.787,1.177c-.114.025-.28.093-.31.18-.376,1.077-.732,2.161-1.086,3.222a.782.782,0,0,0,.133.1c2.321.778,4.641,1.561,6.969,2.315a.758.758,0,0,0,.585-.185,2.366,2.366,0,0,1,2.556-.464.594.594,0,0,0,.707-.118q2.84-2.382,5.7-4.745c.113-.094.237-.176.356-.264M26.555,8.243c.04.064.051.1.075.118,1.921,1.445,3.839,2.893,5.771,4.323a.588.588,0,0,0,.477-.008,2.41,2.41,0,0,1,1.943-.059.5.5,0,0,0,.615-.129c1.259-1.147,2.516-2.3,3.8-3.413.47-.407.851-.785.525-1.449-.085-.174-.145-.429-.287-.5q-2.958-1.4-5.942-2.753a.559.559,0,0,0-.475.05,2.49,2.49,0,0,1-2.452.392.473.473,0,0,0-.393.029c-1.23,1.125-2.447,2.265-3.661,3.4m14.456,1.5a.83.83,0,0,0-.157.114c-1.442,1.295-2.887,2.586-4.313,3.9a.858.858,0,0,0-.157.547,8.463,8.463,0,0,1,0,1.14.511.511,0,0,0,.213.583c1.226,1.007,2.449,2.018,3.654,3.05a.519.519,0,0,0,.7.058q2.472-1.37,4.963-2.707c.33-.177.56-.328.5-.782a1.733,1.733,0,0,1,.221-.857.511.511,0,0,0-.082-.621q-1.489-1.824-2.939-3.678c-.318-.409-.591-.707-1.206-.572a4.53,4.53,0,0,1-1.389-.171M11.139,15.335a3.635,3.635,0,0,0,0,.409c.32,2.428.661,4.854.952,7.286.078.654.139,1.216.884,1.469a.719.719,0,0,0,.666.023c2.1-1.1,4.2-2.18,6.3-3.27.128-.066.247-.151.384-.236-.443-1.429-.872-2.828-1.32-4.222a.455.455,0,0,0-.308-.232,2.7,2.7,0,0,1-1.835-1.268.575.575,0,0,0-.427-.225c-1.75.075-3.5.172-5.3.266m-1.73.079c-1.476.079-2.924.15-4.37.244-.107.007-.246.153-.3.267A2.658,2.658,0,0,1,3.6,17.141a.625.625,0,0,0-.273.446q-.03,2.306,0,4.613a.625.625,0,0,0,.271.452,2.612,2.612,0,0,1,1.257,1.491.667.667,0,0,0,.433.356c1.061.219,2.137.369,3.193.612.614.141,1.125.178,1.482-.446a.477.477,0,0,1,.234-.183c.394-.15.36-.445.312-.778-.134-.925-.246-1.852-.368-2.779-.239-1.816-.479-3.632-.728-5.513m22.15-1.252L25.266,9.445c-1.262,1.178-2.487,2.312-3.692,3.466a.817.817,0,0,0-.121.506,10.233,10.233,0,0,1-.038,1.376.621.621,0,0,0,.173.655c.988.972,1.976,1.944,2.936,2.942a.529.529,0,0,0,.76.1c1.694-.9,3.383-1.8,5.11-2.633.746-.358,1.3-.737,1.166-1.7m-5.453,5.785c1.148,1.15,2.251,2.262,3.369,3.358a.487.487,0,0,0,.4.031,2.49,2.49,0,0,1,2.159.285.73.73,0,0,0,.608.018c1.505-.8,2.995-1.619,4.489-2.434l1.8-.983a.839.839,0,0,0-.1-.153c-1.128-.944-2.251-1.893-3.395-2.818a.626.626,0,0,0-.519-.04,2.533,2.533,0,0,1-2.385-.255.668.668,0,0,0-.557-.04c-1.269.633-2.524,1.294-3.782,1.948l-2.085,1.084M24.981,35.995c-.012-.036-.027-.084-.042-.131-.435-1.4-.863-2.8-1.317-4.195a.691.691,0,0,0-.39-.374q-4.664-1.576-9.341-3.115a.563.563,0,0,0-.477.052.544.544,0,0,0-.032.471c.418,1.089.863,2.167,1.289,3.253a.517.517,0,0,0,.5.382,2.216,2.216,0,0,1,2.036,1.6,1.154,1.154,0,0,0,1.057.954,2.565,2.565,0,0,1,.29.075q2.787.794,5.575,1.587c.369.1.867-.219.856-.563m2.989-4.9c.37-1.106.732-2.16,1.063-3.225a.589.589,0,0,0-.16-.453,2.069,2.069,0,0,1-.647-1.962,1.423,1.423,0,0,0-.651-1.66c-.215-.184-.4-.4-.6-.6l-2.436-2.438-2.179,1.137c.83,2.676,1.646,5.315,2.477,7.949a.586.586,0,0,0,.334.309c.911.32,1.831.619,2.8.943m18.122-4.841.091-.135A.784.784,0,0,1,46,26.032c-1.771-1.473-3.543-2.943-5.3-4.428a.518.518,0,0,0-.7-.065c-1.718.957-3.449,1.891-5.175,2.833l-1.172.642.016.108,12.421,1.13m-23.16,3.16L20.84,22.671c-2.2,1.143-4.367,2.263-6.526,3.391-.1.053-.162.179-.242.271a1.2,1.2,0,0,0,.3.226c2.814.943,5.63,1.879,8.561,2.854m19.023-8.925c1.871,1.558,3.667,3.056,5.471,4.544a.42.42,0,0,0,.376.071.613.613,0,0,0,.245-.413c.015-2.089.013-4.179.009-6.268a.867.867,0,0,0-1.11-.655c-1.1.593-2.2,1.2-3.3,1.8l-1.693.925M19.946,3.362l5.207,3.9,4.058-3.795-.065-.106ZM9.186,13.743c-.191-1.509-.374-2.979-.57-4.447a.334.334,0,0,0-.187-.243.37.37,0,0,0-.284.138q-1.7,2.108-3.378,4.232a.385.385,0,0,0-.07.336.47.47,0,0,0,.346.192c1.366-.057,2.731-.134,4.142-.207m16.323,18.3,1.032,3.334.9-2.7-1.928-.639M23.144,19.591l-2.18-2.175.888,2.838,1.292-.663M38.97,34.82a.848.848,0,0,0-.843.808.814.814,0,0,0,.785.805.787.787,0,0,0,.827-.748.8.8,0,0,0-.77-.865M31.539,1.705a.774.774,0,0,0-.848.715.8.8,0,0,0,.74.892.856.856,0,0,0,.869-.784.8.8,0,0,0-.761-.823M27.309,38.1a.781.781,0,0,0-.79-.783.817.817,0,0,0-.823.819.862.862,0,0,0,.809.8.8.8,0,0,0,.8-.832M38.961,49.681a.776.776,0,0,0,.78-.792.809.809,0,0,0-.82-.819.858.858,0,0,0-.794.81.8.8,0,0,0,.834.8M42.238,8.263a.776.776,0,0,0,.815-.753.808.808,0,0,0-.779-.857.856.856,0,0,0-.834.822.806.806,0,0,0,.8.788m7.44,7.535a.782.782,0,0,0-.774-.848.818.818,0,0,0-.835.756.851.851,0,0,0,.793.858.794.794,0,0,0,.816-.766M9.929,6.661a.851.851,0,0,0-.77-.83.8.8,0,0,0-.843.79.786.786,0,0,0,.753.822.818.818,0,0,0,.86-.782m9.134,8.229a.806.806,0,0,0,.8-.79.839.839,0,0,0-.793-.816.817.817,0,0,0-.822.829.788.788,0,0,0,.811.777M14.908,34a.781.781,0,0,0-.79.793.812.812,0,0,0,.777.823.862.862,0,0,0,.834-.836A.817.817,0,0,0,14.908,34M2.479,25.682A.868.868,0,0,0,3.3,24.9a.8.8,0,0,0-.808-.827.774.774,0,0,0-.8.764.811.811,0,0,0,.789.85m46.408.864a.805.805,0,1,0,.018,1.61.805.805,0,0,0-.018-1.61M27.31,48.9a.807.807,0,0,0-.807-.83.868.868,0,0,0-.807.8.808.808,0,0,0,.826.812.774.774,0,0,0,.787-.783M3.3,14.931a.81.81,0,0,0-.8-.8.774.774,0,0,0-.815.763.8.8,0,0,0,.8.845.86.86,0,0,0,.812-.807M18.2,2.482a.784.784,0,0,0-.8-.779.8.8,0,0,0-.806.789.847.847,0,0,0,.841.824.819.819,0,0,0,.769-.834M33.991,15.738a.85.85,0,0,0,.792-.822.8.8,0,0,0-.858-.786.777.777,0,0,0-.75.827.809.809,0,0,0,.816.781M12.414,26.528a.855.855,0,0,0-.794-.824.809.809,0,0,0-.814.784.775.775,0,0,0,.8.827.8.8,0,0,0,.808-.788m18.221-1.642a.808.808,0,0,0,.019,1.614.807.807,0,1,0-.019-1.614" transform="translate(0 0)" fill="#f68121"/>
        <path id="Path_2" data-name="Path 2" d="M0,1.911H1.635V.336H3.308v1.6h1.65V3.625H3.3V2.015h-1.6v1.6h1.61V5.3c-.517,0-.979.018-1.437-.016-.089-.007-.224-.212-.232-.332-.029-.425-.011-.854-.011-1.332H0Z" transform="translate(0 -0.292)" fill="#f68121"/>
        <path id="Path_3" data-name="Path 3" d="M359.42,29.189h-1.662V27.534H359.4V25.909h1.677V27.5h1.613v1.679H361.1v1.656H359.4c0-.565,0-1.112,0-1.659H361V27.6H359.42Z" transform="translate(-311.358 -22.549)" fill="#f68121"/>
        <path id="Path_4" data-name="Path 4" d="M323.039,297.537v1.631h-1.671v-1.605h-1.614v-1.7h1.563v-1.6H323v1.565h1.659v1.725h-1.635v-1.627h-1.607v1.613Z" transform="translate(-278.284 -256.097)" fill="#f68121"/>
        <path id="Path_5" data-name="Path 5" d="M65.353,308.449v-1.675h1.7v1.635h1.615v1.68H67.074V311.7H65.4v-1.613c-.454,0-.864-.013-1.272,0-.291.012-.432-.069-.415-.39.022-.412.005-.826.005-1.271H65.37c0,.526,0,1.051,0,1.591H67v-1.575Z" transform="translate(-55.447 -266.986)" fill="#f68121"/>
        <path id="Path_6" data-name="Path 6" d="M29.008,237.863h1.671v1.7H29.03v1.611H27.387v-1.593H25.741v-1.693h1.615c0-.458.015-.87,0-1.281-.015-.31.105-.415.408-.4.4.019.8,0,1.265,0,0,.582,0,1.125,0,1.668H27.431v1.611h1.577Z" transform="translate(-22.402 -205.57)" fill="#f68121"/>
      </g>
    </g>
  </g>
</svg>
