<svg fill="none" xmlns="http://www.w3.org/2000/svg" viewBox="0 0 621 441"><g opacity=".8" fill="#4B5AF3" fill-opacity=".3"><path d="M581.4 235.3a1.3 1.3 0 11-2.6 0 1.3 1.3 0 112.6 0zM581.4 246.6a1.3 1.3 0 11-2.6 0 1.3 1.3 0 112.6 0zM581.4 257.9a1.3 1.3 0 11-2.6 0 1.3 1.3 0 112.6 0zM581.4 269.2a1.3 1.3 0 11-2.6 0 1.3 1.3 0 112.6 0zM581.4 280.5a1.3 1.3 0 11-2.6 0 1.3 1.3 0 112.6 0zM581.4 291.7a1.3 1.3 0 11-2.6 0 1.3 1.3 0 112.6 0zM602.5 235.3a1.3 1.3 0 11-2.6 0 1.3 1.3 0 112.6 0zM602.5 246.6a1.3 1.3 0 11-2.6 0 1.3 1.3 0 112.6 0zM602.5 257.9a1.3 1.3 0 11-2.6 0 1.3 1.3 0 112.6 0zM602.5 269.2a1.3 1.3 0 11-2.6 0 1.3 1.3 0 112.6 0zM601.2 281.8c.7 0 1.3-.6 1.3-1.3 0-.8-.6-1.4-1.3-1.4-.7 0-1.3.6-1.3 1.4 0 .7.6 1.3 1.3 1.3zM601.2 293c.7 0 1.3-.5 1.3-1.3 0-.7-.6-1.3-1.3-1.3-.7 0-1.3.6-1.3 1.3 0 .8.6 1.4 1.3 1.4zM592 235.3a1.3 1.3 0 11-2.7 0 1.3 1.3 0 112.7 0zM592 246.6a1.3 1.3 0 11-2.7 0 1.3 1.3 0 112.7 0zM592 257.9a1.3 1.3 0 11-2.7 0 1.3 1.3 0 112.7 0zM592 269.2a1.3 1.3 0 11-2.7 0 1.3 1.3 0 112.7 0zM590.7 281.8c.7 0 1.3-.6 1.3-1.3 0-.8-.6-1.4-1.3-1.4-.8 0-1.4.6-1.4 1.4 0 .7.6 1.3 1.4 1.3zM590.7 293c.7 0 1.3-.5 1.3-1.3 0-.7-.6-1.3-1.3-1.3-.8 0-1.4.6-1.4 1.3 0 .8.6 1.4 1.4 1.4zM571 235.3a1.3 1.3 0 11-2.7 0 1.3 1.3 0 112.6 0zM571 246.6a1.3 1.3 0 11-2.7 0 1.3 1.3 0 112.6 0zM571 257.9a1.3 1.3 0 11-2.7 0 1.3 1.3 0 112.6 0zM571 269.2a1.3 1.3 0 11-2.7 0 1.3 1.3 0 112.6 0zM571 280.5a1.3 1.3 0 11-2.7 0 1.3 1.3 0 112.6 0zM571 291.7a1.3 1.3 0 11-2.7 0 1.3 1.3 0 112.6 0zM560.4 235.3a1.3 1.3 0 11-2.7 0 1.3 1.3 0 112.7 0zM560.4 246.6a1.3 1.3 0 11-2.7 0 1.3 1.3 0 112.7 0zM560.4 257.9a1.3 1.3 0 11-2.7 0 1.3 1.3 0 112.7 0zM560.4 269.2a1.3 1.3 0 11-2.7 0 1.3 1.3 0 112.7 0zM559 281.8c.8 0 1.4-.6 1.4-1.3 0-.8-.6-1.4-1.3-1.4-.8 0-1.4.6-1.4 1.4 0 .7.6 1.3 1.4 1.3zM559 293c.8 0 1.4-.5 1.4-1.3 0-.7-.6-1.3-1.3-1.3-.8 0-1.4.6-1.4 1.3 0 .8.6 1.4 1.4 1.4zM549.8 235.3a1.3 1.3 0 11-2.6 0 1.3 1.3 0 112.6 0zM549.8 246.6a1.3 1.3 0 11-2.6 0 1.3 1.3 0 112.6 0zM549.8 257.9a1.3 1.3 0 11-2.6 0 1.3 1.3 0 112.6 0zM549.8 269.2a1.3 1.3 0 11-2.6 0 1.3 1.3 0 112.6 0zM548.5 281.8c.7 0 1.3-.6 1.3-1.3 0-.8-.6-1.4-1.3-1.4-.7 0-1.3.6-1.3 1.4 0 .7.6 1.3 1.3 1.3zM548.5 293c.7 0 1.3-.5 1.3-1.3 0-.7-.6-1.3-1.3-1.3-.7 0-1.3.6-1.3 1.3 0 .8.6 1.4 1.3 1.4zM539.3 235.3a1.3 1.3 0 11-2.6 0 1.3 1.3 0 112.6 0zM539.3 246.6a1.3 1.3 0 11-2.6 0 1.3 1.3 0 112.6 0zM539.3 257.9a1.3 1.3 0 11-2.6 0 1.3 1.3 0 112.6 0zM539.3 269.2a1.3 1.3 0 11-2.6 0 1.3 1.3 0 112.6 0zM539.3 280.5a1.3 1.3 0 11-2.6 0 1.3 1.3 0 112.6 0zM539.3 291.7a1.3 1.3 0 11-2.6 0 1.3 1.3 0 112.6 0z"/></g><path fill-rule="evenodd" clip-rule="evenodd" d="M279 73.6c-14-23.4-28.2-47-52.5-58-34.3-15.7-77.4-23.4-110-4.4-22.8 13.2-31 39.3-39.2 65.5-3.4 11-6.9 22-11.4 32-4.2 9.3-9.5 18.4-15 27.5-13 22.2-26 44.2-21.1 68.6 6.8 34.2 40.2 56 70 73.6 13.5 8 28.4 9.8 43.7 11-3.5 65.7 56 114.2 117.6 139.2C318.3 451.8 383 443 425.7 398c49.2-51.6 82-128 44.7-189-30-49.2-90.5-52.4-148.5-43.2-1-2-2-3.8-2.8-5.7a385 385 0 01-10.4-26.3c-5.5-15.1-11-30-19.8-44-3.4-5.3-6.7-10.7-10-16.2z" fill="url(#paint0_linear)"/><path d="M614.3 82.5c1.5.9 2.5 2.1 3 3.8.4 1.7.2 3.3-.6 4.9L589.5 139a6 6 0 01-3.8 3 6 6 0 01-4.8-.7l-25.5-14.7a6.1 6.1 0 01-3-3.8c-.4-1.7-.2-3.3.7-4.9l27-47.8a6 6 0 013.9-3 6 6 0 014.8.7l25.5 14.7zm-46 45.1c.3 1.2 1 2.1 2 2.7 1 .6 2 .7 3.1.3 1.2-.3 2-.9 2.6-1.9.6-1 .7-2 .3-3.2-.3-1.1-.9-2-1.9-2.6-1-.5-2-.7-3.2-.3a4 4 0 00-2.5 1.9 4 4 0 00-.4 3.1zm21.8-2.4l20.3-35.8c.5-1 .3-1.7-.6-2.2L587 74.1c-.9-.5-1.6-.4-2.1.6l-20.4 35.8c-.5 1-.3 1.7.6 2.2l22.8 13.1c1 .5 1.6.4 2.2-.6z" fill="#D1D6FB"/><g filter="url(#filter0_d)"><rect x="59.3" y="49.3" width="501.1" height="344" rx="7.2" fill="#fff"/></g><rect x="409.6" y="98" width="100.4" height="93.2" rx="2.8" transform="rotate(90 409.6 98)" fill="#FAFAFF"/><rect x="409.3" y="98.3" width="99.8" height="92.5" rx="2.5" transform="rotate(90 409.3 98.3)" stroke="#4B5AF3" stroke-opacity=".3" stroke-width=".6"/><rect width="82.8" height="6.4" rx="1.7" transform="matrix(0 -1 -1 0 389.2 190)" fill="#DBDEFD"/><path d="M389.2 177.1V109c0-1-.8-1.8-1.7-1.8h-3c-1 0-1.7.8-1.7 1.8V177h6.4z" fill="#8F99FF"/><rect width="60.3" height="6.4" rx="1.7" transform="matrix(0 -1 -1 0 380 190)" fill="#DBDEFD"/><rect width="20.9" height="6.4" rx="1.7" transform="matrix(0 -1 -1 0 370.9 190)" fill="#DBDEFD"/><rect width="24" height="6.4" rx="1.7" transform="matrix(0 -1 -1 0 361.7 190)" fill="#DBDEFD"/><rect width="16.7" height="6.4" rx="1.7" transform="matrix(0 -1 -1 0 352.6 190)" fill="#DBDEFD"/><path d="M380 177.1v-45.7c0-1-.7-1.7-1.7-1.7h-3c-.9 0-1.7.8-1.7 1.7v45.7h6.4zM370.9 177.1V171c0-1-.8-1.8-1.8-1.8h-2.9c-1 0-1.7.8-1.7 1.8v6.2h6.4zM361.7 177.1v-17.3c0-1-.8-1.8-1.7-1.8h-3c-1 0-1.7.8-1.7 1.8V177h6.4zM352.6 177.1v-2c0-.9-.8-1.7-1.8-1.7h-3c-.9 0-1.7.8-1.7 1.8v2h6.5z" fill="#8F99FF"/><rect width="10" height="6.4" rx="1.7" transform="matrix(0 -1 -1 0 343.4 190)" fill="#DBDEFD"/><rect x="531.4" y="98.3" width="99.8" height="103.6" rx="2.5" transform="rotate(90 531.4 98.3)" fill="#FAFAFF" stroke="#C5CAFC" stroke-width=".6"/><g filter="url(#filter1_d)"><path d="M503.1 131.8A28 28 0 01493 170a27.6 27.6 0 01-37.8-10.2 28 28 0 0110-38 27.6 27.6 0 0137.9 10.1zm-32.2 18.8a9.5 9.5 0 0013 3.5 9.7 9.7 0 003.5-13.1 9.5 9.5 0 00-13-3.6 9.7 9.7 0 00-3.5 13.2z" fill="#949CEC"/></g><path d="M490.6 120.4a27.5 27.5 0 00-33.5 8.5 28 28 0 00.8 34.8l14-11.8a9.7 9.7 0 014.9-15.4c2-.6 4.3-.4 6.3.5l7.5-16.6z" fill="#B7BFFD"/><path d="M490.5 120.3a27.5 27.5 0 00-35 11 28 28 0 00-4 12.6l18.1 1.2a9.7 9.7 0 019-9c1.5 0 3 .3 4.5 1l7.4-16.8z" fill="#7C88FF"/><ellipse cx="438.7" cy="186.2" rx="2.2" ry="2.3" fill="#B9ACEC"/><ellipse cx="468.8" cy="186.2" rx="2.2" ry="2.3" fill="#4B5AF3"/><ellipse cx="502.8" cy="186.2" rx="2.2" ry="2.3" fill="#B7BFFD"/><rect x="443.9" y="184.8" width="16.6" height="2.8" rx="1.4" fill="#E1E1E1"/><rect x="472.5" y="184.8" width="16.6" height="2.8" rx="1.4" fill="#E1E1E1"/><rect x="506.6" y="184.8" width="16.6" height="2.8" rx="1.4" fill="#E1E1E1"/><g filter="url(#filter2_d)"><rect x="87.2" y="214" width="444.5" height="157" rx="3" fill="#fff"/><rect x="87.6" y="214.4" width="443.7" height="156.2" rx="2.6" stroke="#F5F6FF" stroke-width=".8"/></g><rect x="240.7" y="214" width="291" height="157" rx="7" fill="#F5F6FF"/><rect x="102" y="228.4" width="72" height="4.6" rx="2.3" fill="#DBDFFE"/><rect x="254.6" y="228.4" width="40.3" height="4.6" rx="2.3" fill="#DFE2FF"/><rect x="337.2" y="228.4" width="29.7" height="4.6" rx="2.3" fill="#DFE2FF"/><rect x="409.2" y="228.4" width="29.7" height="4.6" rx="2.3" fill="#DFE2FF"/><rect x="481.3" y="228.4" width="29.7" height="4.6" rx="2.3" fill="#DFE2FF"/><rect x="102" y="243.1" width="91.1" height="4.6" rx="2.3" fill="#DBDFFE"/><rect x="254.6" y="243.1" width="40.3" height="4.6" rx="2.3" fill="#DFE2FF"/><rect x="337.2" y="243.1" width="29.7" height="4.6" rx="2.3" fill="#DFE2FF"/><rect x="409.3" y="243.1" width="29.7" height="4.6" rx="2.3" fill="#DFE2FF"/><rect x="481.3" y="243.1" width="29.7" height="4.6" rx="2.3" fill="#DFE2FF"/><rect x="102" y="257.7" width="42.4" height="4.6" rx="2.3" fill="#DBDFFE"/><rect x="150.7" y="257.7" width="23.3" height="4.6" rx="2.3" fill="#DBDFFE"/><rect x="254.6" y="257.7" width="40.3" height="4.6" rx="2.3" fill="#DFE2FF"/><rect x="337.2" y="257.7" width="29.7" height="4.6" rx="2.3" fill="#DFE2FF"/><rect x="409.3" y="257.7" width="29.7" height="4.6" rx="2.3" fill="#DFE2FF"/><rect x="481.3" y="257.7" width="29.7" height="4.6" rx="2.3" fill="#DFE2FF"/><rect x="102" y="272.4" width="91.1" height="4.6" rx="2.3" fill="#DBDFFE"/><rect x="254.6" y="272.4" width="40.3" height="4.6" rx="2.3" fill="#DFE2FF"/><rect x="337.2" y="272.4" width="29.7" height="4.6" rx="2.3" fill="#DFE2FF"/><rect x="409.3" y="272.4" width="29.7" height="4.6" rx="2.3" fill="#DFE2FF"/><rect x="481.3" y="272.4" width="29.7" height="4.6" rx="2.3" fill="#DFE2FF"/><rect x="102" y="287" width="29.7" height="4.6" rx="2.3" fill="#DBDFFE"/><rect x="254.6" y="287" width="40.3" height="4.6" rx="2.3" fill="#DFE2FF"/><rect x="337.2" y="287" width="29.7" height="4.6" rx="2.3" fill="#DFE2FF"/><rect x="409.3" y="287" width="29.7" height="4.6" rx="2.3" fill="#DFE2FF"/><rect x="481.3" y="287" width="29.7" height="4.6" rx="2.3" fill="#DFE2FF"/><rect x="102" y="301.7" width="48.7" height="4.6" rx="2.3" fill="#DBDFFE"/><rect x="254.6" y="301.7" width="40.3" height="4.6" rx="2.3" fill="#DFE2FF"/><rect x="337.2" y="301.7" width="29.7" height="4.6" rx="2.3" fill="#DFE2FF"/><rect x="409.3" y="301.7" width="29.7" height="4.6" rx="2.3" fill="#DFE2FF"/><rect x="481.3" y="301.7" width="29.7" height="4.6" rx="2.3" fill="#DFE2FF"/><rect x="102" y="316.3" width="29.7" height="4.6" rx="2.3" fill="#DBDFFE"/><rect x="254.6" y="316.3" width="40.3" height="4.6" rx="2.3" fill="#DFE2FF"/><rect x="337.2" y="316.3" width="29.7" height="4.6" rx="2.3" fill="#DFE2FF"/><rect x="409.3" y="316.3" width="29.7" height="4.6" rx="2.3" fill="#DFE2FF"/><rect x="481.3" y="316.3" width="29.7" height="4.6" rx="2.3" fill="#DFE2FF"/><rect x="102" y="331" width="48.7" height="4.6" rx="2.3" fill="#DBDFFE"/><rect x="159.2" y="331" width="29.7" height="4.6" rx="2.3" fill="#DBDFFE"/><rect x="254.6" y="331" width="40.3" height="4.6" rx="2.3" fill="#DFE2FF"/><rect x="337.2" y="331" width="29.7" height="4.6" rx="2.3" fill="#DFE2FF"/><rect x="409.3" y="331" width="29.7" height="4.6" rx="2.3" fill="#DFE2FF"/><rect x="481.3" y="331" width="29.7" height="4.6" rx="2.3" fill="#DFE2FF"/><rect x="102" y="345.6" width="42.4" height="4.6" rx="2.3" fill="#DBDFFE"/><rect x="254.6" y="345.6" width="40.3" height="4.6" rx="2.3" fill="#DFE2FF"/><rect x="337.2" y="345.6" width="29.7" height="4.6" rx="2.3" fill="#DFE2FF"/><rect x="409.3" y="345.6" width="29.7" height="4.6" rx="2.3" fill="#DFE2FF"/><rect x="481.3" y="345.6" width="29.7" height="4.6" rx="2.3" fill="#DFE2FF"/><g clip-path="url(#clip0)"><rect x="87.2" y="95" width="27" height="5.3" rx="2.7" fill="#353D50" fill-opacity=".7"/><path d="M120 99l1.3-1.3-1.4-1.4" stroke="#D0D1D2" stroke-width=".4" stroke-linecap="round" stroke-linejoin="round"/><rect x="127.1" y="95" width="27" height="5.3" rx="2.7" fill="#353D50" fill-opacity=".3"/></g><g clip-path="url(#clip1)"><rect x="88.3" y="111.9" width="17.1" height="17.1" rx="3" fill="#4B5AF3"/><rect x="113" y="118.1" width="69.5" height="4.6" rx="2.3" fill="#4B5AF3" fill-opacity=".9"/><rect x="190.1" y="118.1" width="21.6" height="4.6" rx="2.3" fill="#DBDFFE"/><rect x="219.3" y="111.9" width="17.1" height="17.1" rx="8.5" fill="#F8F9FE"/><path fill-rule="evenodd" clip-rule="evenodd" d="M228.3 118a.5.5 0 00-1 0v2h-1.8a.5.5 0 100 .9h1.9v1.9a.5.5 0 101 0v-2h1.8a.5.5 0 100-.9h-1.9V118z" fill="#4B5AF3"/></g><g clip-path="url(#clip2)"><rect x="191.6" y="146.2" width="33.7" height="5.6" rx="2.8" fill="#4B5AF3" fill-opacity=".4"/><path clip-rule="evenodd" d="M231.9 151.6a2.6 2.6 0 100-5.2 2.6 2.6 0 000 5.2z" stroke="#D0D1D2" stroke-width=".5" stroke-linecap="round" stroke-linejoin="round"/><path d="M231.9 148v1" stroke="#D0D1D2" stroke-width=".5" stroke-linecap="round" stroke-linejoin="round"/><circle cx="231.9" cy="150" r=".3" fill="#D0D1D2"/></g><g clip-path="url(#clip3)"><rect x="114.5" y="146.2" width="33.7" height="5.6" rx="2.8" fill="#4B5AF3" fill-opacity=".7"/><path clip-rule="evenodd" d="M154.8 151.6a2.6 2.6 0 100-5.2 2.6 2.6 0 000 5.2z" stroke="#D0D1D2" stroke-width=".5" stroke-linecap="round" stroke-linejoin="round"/><path d="M154.8 148v1" stroke="#D0D1D2" stroke-width=".5" stroke-linecap="round" stroke-linejoin="round"/><circle cx="154.8" cy="150" r=".3" fill="#D0D1D2"/></g><path d="M165.7 139.2c-.2.3-.3.7-.3 1.2v18.1c0 .5.1 1 .3 1.2h.1l10-10.1V149.3l-10-10.1z" fill="url(#paint1_linear)"/><path d="M179 153l-3.3-3.4V149.3l3.4-3.3 4 2.3c1 .6 1 1.7 0 2.3l-4 2.3z" fill="url(#paint2_linear)"/><path d="M179.1 153l-3.4-3.5-10 10.2c.4.4 1 .4 1.7 0l11.7-6.8z" fill="url(#paint3_linear)"/><path d="M179.1 146l-11.7-6.8c-.7-.4-1.3-.4-1.7 0l10 10.3 3.4-3.5z" fill="url(#paint4_linear)"/><path opacity=".2" d="M179 152.8l-11.6 6.8c-.6.4-1.2.4-1.6 0v.1c.4.4 1 .4 1.6 0l11.7-6.8z" fill="#000"/><path opacity=".1" d="M165.7 159.5c-.2-.2-.3-.6-.3-1.1v.1c0 .5.1 1 .3 1.2h.1v-.2zM183 150.5l-4 2.3.1.1 4-2.3c.5-.3.8-.7.8-1.1 0 .3-.3.7-.8 1z" fill="#000"/><path opacity=".3" d="M167.4 139.3l15.7 9c.5.4.7.8.8 1.2 0-.5-.3-.9-.8-1.2l-15.7-9.1c-1.1-.6-2-.1-2 1.2v.1c0-1.3.9-1.8 2-1.2z" fill="#fff"/><path d="M89.9 139.3h15.7c.9 0 1.6.7 1.6 1.6V157c0 1-.7 1.6-1.6 1.6H90c-.9 0-1.6-.7-1.6-1.6v-16c0-1 .7-1.7 1.6-1.7z" fill="url(#paint5_linear)"/><path d="M94.5 153.4l-.7 1c-.2.5-.7.6-1.1.4a.9.9 0 01-.3-1.2l.4-.8c.2-.2.4-.4.8-.4 0 0 .9.1 1 .6l-.1.4zm9-3h-2.2l-2.1-3.8-.2-.1c-.2-.4-.5.5-.5.5-.4.9 0 2 .2 2.3l3 5.2c.2.4.7.5 1.1.3.4-.2.5-.8.3-1.2l-.7-1.3h1c.5 0 1-.5 1-1 0-.4-.5-.8-1-.8zm-3.9 1.3s.1.5-.3.5H92a.8.8 0 01-.7-.9c0-.4.3-.8.8-.8h1.9c.3 0 .4-.2.4-.2l2.4-4.4v-.1l-.8-1.5c-.2-.4 0-1 .3-1.2.4-.2 1 0 1.2.4l.3.6.4-.6c.2-.4.8-.6 1.2-.3.4.2.5.7.3 1.1l-3.5 6 .1.2h2s1.3 0 1.4 1.2z" fill="#fff"/><path d="M58.7 56.5c0-4 3.2-7.2 7.2-7.2h486.7c4 0 7.2 3.2 7.2 7.2V75h-501V56.5z" fill="#A4ACF8"/><rect x="238.3" y="59.8" width="36.8" height="4.7" rx="2.2" fill="#fff"/><rect x="282.9" y="59.8" width="36.8" height="4.7" rx="2.2" fill="#fff"/><rect x="327.5" y="59.8" width="36.8" height="4.7" rx="2.2" fill="#fff"/><rect x="376.4" y="55.9" width=".8" height="12.5" rx=".4" fill="#fff"/><path clip-rule="evenodd" d="M396.7 65a3 3 0 003-3 3 3 0 00-3-3 3 3 0 00-2.9 3 3 3 0 003 3z" stroke="#fff" stroke-width="1.8" stroke-linecap="round" stroke-linejoin="round"/><path d="M400.8 66l-2-2" stroke="#fff" stroke-width="1.8" stroke-linecap="round" stroke-linejoin="round"/><rect x="465.2" y="59.8" width="52.7" height="4.7" rx="2.3" fill="#fff"/><rect x="529.2" y="54.7" width="15.2" height="15.3" rx="7.6" fill="#fff" stroke="#fff" stroke-width=".7"/><path d="M550.5 61.8l1 1 1-1" stroke="#fff" stroke-width=".7" stroke-linecap="round" stroke-linejoin="round"/><path d="M541.6 66a6.3 6.3 0 01-4.9 2.4c-1.8 0-3.5-.8-4.8-2.4a5 5 0 012.3-3.8h.2a3.2 3.2 0 004.6 0h.2a5 5 0 012.4 3.7zm-4.9-3.4a3 3 0 003-3 3 3 0 00-3-2.9 3 3 0 00-2.9 3 3 3 0 003 2.9z" fill="#7360F2"/><path d="M456 64.2h-.5v-2c0-1.6-1-2.8-2.5-3.1l.1-.5c0-.4-.3-.7-.7-.7-.4 0-.8.3-.8.7l.1.5a3.2 3.2 0 00-2.5 3v2.1h-.4c-.4 0-.7.3-.7.6 0 .4.3.7.7.7h2.8v.5c0 .5.3.9.8.9.4 0 .8-.4.8-1v-.4h2.8c.4 0 .7-.3.7-.7 0-.3-.3-.6-.7-.6z" fill="#fff"/><circle cx="73.3" cy="62" fill="#DFE2FF" r="4.5"/><circle cx="88" cy="62" fill="#DFE2FF" r="4.5"/><circle cx="102.7" cy="62" fill="#DFE2FF" r="4.5"/><path d="M58.7 56.5c0-4 3.2-7.2 7.2-7.2h486.7c4 0 7.2 3.2 7.2 7.2V75h-501V56.5z" fill="#A4ACF8"/><rect x="238.3" y="59.8" width="36.8" height="4.7" rx="2.2" fill="#fff"/><rect x="282.9" y="59.8" width="36.8" height="4.7" rx="2.2" fill="#fff"/><rect x="327.5" y="59.8" width="36.8" height="4.7" rx="2.2" fill="#fff"/><rect x="376.4" y="55.9" width=".8" height="12.5" rx=".4" fill="#fff"/><path clip-rule="evenodd" d="M396.7 65a3 3 0 003-3 3 3 0 00-3-3 3 3 0 00-2.9 3 3 3 0 003 3z" stroke="#fff" stroke-width="1.8" stroke-linecap="round" stroke-linejoin="round"/><path d="M400.8 66l-2-2" stroke="#fff" stroke-width="1.8" stroke-linecap="round" stroke-linejoin="round"/><rect x="465.2" y="59.8" width="52.7" height="4.7" rx="2.3" fill="#fff"/><rect x="529.2" y="54.7" width="15.2" height="15.3" rx="7.6" fill="#fff" stroke="#fff" stroke-width=".7"/><path d="M550.5 61.8l1 1 1-1" stroke="#fff" stroke-width=".7" stroke-linecap="round" stroke-linejoin="round"/><path d="M541.6 66a6.3 6.3 0 01-4.9 2.4c-1.8 0-3.5-.8-4.8-2.4a5 5 0 012.3-3.8h.2a3.2 3.2 0 004.6 0h.2a5 5 0 012.4 3.7zm-4.9-3.4a3 3 0 003-3 3 3 0 00-3-2.9 3 3 0 00-2.9 3 3 3 0 003 2.9z" fill="#7360F2"/><path d="M456 64.2h-.5v-2c0-1.6-1-2.8-2.5-3.1l.1-.5c0-.4-.3-.7-.7-.7-.4 0-.8.3-.8.7l.1.5a3.2 3.2 0 00-2.5 3v2.1h-.4c-.4 0-.7.3-.7.6 0 .4.3.7.7.7h2.8v.5c0 .5.3.9.8.9.4 0 .8-.4.8-1v-.4h2.8c.4 0 .7-.3.7-.7 0-.3-.3-.6-.7-.6z" fill="#fff"/><circle cx="73.3" cy="62" fill="#DFE2FF" r="4.5"/><circle cx="88" cy="62" fill="#DFE2FF" r="4.5"/><circle cx="102.7" cy="62" fill="#DFE2FF" r="4.5"/><rect x="87.2" y="185" width="67" height="14" rx="2.6" fill="#838EFF"/><rect x="158.4" y="185" width="67" height="14" rx="2.6" fill="#DBDEFD"/><rect x="229.6" y="185" width="67" height="14" rx="2.6" fill="#DBDEFD"/><path d="M244.3 153.4v-6.6h11v6.6c0 .3-.2.6-.4.8-.2.2-.5.4-.8.4h-8.6c-.3 0-.6-.2-.8-.4-.2-.2-.4-.5-.4-.8zm7.8-4.8v1c0 .2.1.3.3.3h1c.2 0 .3-.1.3-.3v-1c0-.2-.1-.3-.3-.3h-1c-.2 0-.3.1-.3.3zm0 3.1v1c0 .2.1.3.3.3h1c.2 0 .3-.1.3-.3v-1c0-.2-.1-.3-.3-.3h-1c-.2 0-.3.1-.3.3zm-3-3v.9c0 .2 0 .3.2.3h1c.2 0 .3-.1.3-.3v-1c0-.2-.1-.3-.3-.3h-1c-.2 0-.3.1-.3.3zm0 3v1c0 .2 0 .3.2.3h1c.2 0 .3-.1.3-.3v-1c0-.2-.1-.3-.3-.3h-1c-.2 0-.3.1-.3.3zm-3.2-3v.9c0 .2.1.3.3.3h1c.2 0 .3-.1.3-.3v-1c0-.2-.1-.3-.3-.3h-1c-.2 0-.3.1-.3.3zm0 3v1c0 .2.1.3.3.3h1c.2 0 .3-.1.3-.3v-1c0-.2-.1-.3-.3-.3h-1c-.2 0-.3.1-.3.3zm8.2-8c.3 0 .6 0 .8.3.2.2.3.5.3.8v1.2h-10.9v-1.2c0-.3.2-.6.4-.8.2-.2.5-.3.8-.3h1.2v-1.2-.3l.4-.1h.8l.2.1.1.3v1.2h3.2v-1.2-.3l.3-.1h.8l.3.1.1.3v1.2h1.2z" fill="#DBDEFD"/><path d="M77.4 276.4c.6 0 1.2.3 1.7.9.5.5.7 1 .6 1.7A35 35 0 0169 300c-1 1-2.1.9-3.2-.2l-23.3-23.3h34.9zm-2.4-9.6c0 .7-.2 1.3-.7 1.8a2 2 0 01-1.6.7H39.9v-33c0-.8.2-1.3.7-1.7.5-.5 1-.7 1.8-.7 8.6.5 16.1 4 22.4 10.3A34.4 34.4 0 0175 266.8zm-42.2 9.6l22.9 23c.5.5.7 1 .6 1.8a2 2 0 01-1 1.8 33.8 33.8 0 01-19.7 6.4 34 34 0 01-24.6-9.8c-7-6.8-10.7-15-11-24.4-.3-9 2.5-17 8.2-24 5.9-7 13.2-11 22-12.2a2 2 0 011.8.6c.5.4.8 1 .8 1.8v35z" fill="#D1D6FB"/><path d="M32.3 51.9c0-.7-.5-1.3-1.2-1.3h-3.5a4.8 4.8 0 01-4.8-4.7v-3.7c0-.7-.6-1.2-1.2-1.2-.7 0-1.3.5-1.3 1.2V46c0 2.6-2 4.7-4.7 4.7H12c-.7 0-1.2.6-1.2 1.3 0 .6.5 1.2 1.2 1.2h3.6c2.6 0 4.7 2.1 4.7 4.8v3.6c0 .7.6 1.2 1.3 1.2.6 0 1.2-.5 1.2-1.2v-3.6c0-2.7 2.1-4.8 4.8-4.8H31c.7 0 1.2-.6 1.2-1.2zM600.9 411.9c0-.7-.6-1.3-1.3-1.3h-3.5a4.8 4.8 0 01-4.8-4.7v-3.7c0-.7-.5-1.2-1.2-1.2s-1.2.5-1.2 1.2v3.7c0 2.6-2.2 4.7-4.8 4.7h-3.5c-.7 0-1.3.6-1.3 1.3 0 .6.6 1.2 1.3 1.2h3.5c2.6 0 4.8 2.1 4.8 4.8v3.6c0 .7.5 1.2 1.2 1.2s1.2-.5 1.2-1.2v-3.6c0-2.7 2.2-4.8 4.8-4.8h3.5c.7 0 1.3-.6 1.3-1.2z" fill="#FEDB6B"/><defs><linearGradient id="paint0_linear" x1="174.3" y1="-11.6" x2="431.7" y2="439.4" gradientUnits="userSpaceOnUse"><stop stop-color="#F5F6FF"/><stop offset="1" stop-color="#F5F6FF" stop-opacity="0"/></linearGradient><linearGradient id="paint1_linear" x1="174.9" y1="140.2" x2="161.1" y2="153.7" gradientUnits="userSpaceOnUse"><stop stop-color="#00A0FF"/><stop offset="0" stop-color="#00A1FF"/><stop offset=".3" stop-color="#00BEFF"/><stop offset=".5" stop-color="#00D2FF"/><stop offset=".8" stop-color="#00DFFF"/><stop offset="1" stop-color="#00E3FF"/></linearGradient><linearGradient id="paint2_linear" x1="184.5" y1="149.5" x2="165.1" y2="149.5" gradientUnits="userSpaceOnUse"><stop stop-color="#FFE000"/><stop offset=".4" stop-color="#FFBD00"/><stop offset=".8" stop-color="orange"/><stop offset="1" stop-color="#FF9C00"/></linearGradient><linearGradient id="paint3_linear" x1="177.3" y1="151.3" x2="158.6" y2="169.6" gradientUnits="userSpaceOnUse"><stop stop-color="#FF3A44"/><stop offset="1" stop-color="#C31162"/></linearGradient><linearGradient id="paint4_linear" x1="163.2" y1="133.2" x2="171.6" y2="141.4" gradientUnits="userSpaceOnUse"><stop stop-color="#32A071"/><stop offset=".1" stop-color="#2DA771"/><stop offset=".5" stop-color="#15CF74"/><stop offset=".8" stop-color="#06E775"/><stop offset="1" stop-color="#00F076"/></linearGradient><linearGradient id="paint5_linear" x1="97.8" y1="158.6" x2="97.8" y2="139.3" gradientUnits="userSpaceOnUse"><stop stop-color="#1D76F2"/><stop offset="1" stop-color="#1AC2FB"/></linearGradient><clipPath id="clip0"><path fill="#fff" transform="translate(87.2 95)" d="M0 0h66.3v5.3H0z"/></clipPath><clipPath id="clip1"><path fill="#fff" transform="translate(88.3 111.9)" d="M0 0h178.6v17.1H0z"/></clipPath><clipPath id="clip2"><path fill="#fff" transform="translate(191.6 145.9)" d="M0 0h43.5v6.3H0z"/></clipPath><clipPath id="clip3"><path fill="#fff" transform="translate(114.5 145.9)" d="M0 0h43.5v6.3H0z"/></clipPath><filter id="filter0_d" x="42" y="39.2" width="535.6" height="378.5" filterUnits="userSpaceOnUse" color-interpolation-filters="sRGB"><feFlood flood-opacity="0" result="BackgroundImageFix"/><feColorMatrix in="SourceAlpha" values="0 0 0 0 0 0 0 0 0 0 0 0 0 0 0 0 0 0 127 0"/><feOffset dy="7.2"/><feGaussianBlur stdDeviation="8.6"/><feColorMatrix values="0 0 0 0 0 0 0 0 0 0 0 0 0 0 0 0 0 0 0.16 0"/><feBlend in2="BackgroundImageFix" result="effect1_dropShadow"/><feBlend in="SourceGraphic" in2="effect1_dropShadow" result="shape"/></filter><filter id="filter1_d" x="448" y="114.4" width="62.3" height="62.7" filterUnits="userSpaceOnUse" color-interpolation-filters="sRGB"><feFlood flood-opacity="0" result="BackgroundImageFix"/><feColorMatrix in="SourceAlpha" values="0 0 0 0 0 0 0 0 0 0 0 0 0 0 0 0 0 0 127 0"/><feOffset/><feGaussianBlur stdDeviation="1.7"/><feColorMatrix values="0 0 0 0 0 0 0 0 0 0 0 0 0 0 0 0 0 0 0.1 0"/><feBlend in2="BackgroundImageFix" result="effect1_dropShadow"/><feBlend in="SourceGraphic" in2="effect1_dropShadow" result="shape"/></filter><filter id="filter2_d" x="81.2" y="208" width="456.5" height="169" filterUnits="userSpaceOnUse" color-interpolation-filters="sRGB"><feFlood flood-opacity="0" result="BackgroundImageFix"/><feColorMatrix in="SourceAlpha" values="0 0 0 0 0 0 0 0 0 0 0 0 0 0 0 0 0 0 127 0"/><feOffset/><feGaussianBlur stdDeviation="3"/><feColorMatrix values="0 0 0 0 0 0 0 0 0 0 0 0 0 0 0 0 0 0 0.16 0"/><feBlend in2="BackgroundImageFix" result="effect1_dropShadow"/><feBlend in="SourceGraphic" in2="effect1_dropShadow" result="shape"/></filter></defs></svg>