<svg xmlns="http://www.w3.org/2000/svg" width="60" height="60" viewBox="0 0 60 60">
  <g id="best_in_class_contingency_plan_icon" transform="translate(-716 -117)">
    <rect id="Rectangle_8337" data-name="Rectangle 8337" width="60" height="60" transform="translate(716 117)" fill="#fff" opacity="0"/>
    <g id="XMLID_2590_" transform="translate(671.682 117)">
      <g id="XMLID_212_" transform="translate(50.201 0)">
        <path id="XMLID_215_" d="M98.278,51.717l-10.1-17.5a19.922,19.922,0,1,0-27.715,0l-10.1,17.5a1.172,1.172,0,0,0,1.32,1.717l7.788-2.1,2.077,7.793a1.172,1.172,0,0,0,2.147.284L74.318,41,84.947,59.414a1.172,1.172,0,0,0,2.147-.284l2.077-7.793,7.788,2.1a1.172,1.172,0,0,0,1.32-1.717ZM56.74,19.922A17.578,17.578,0,1,1,74.318,37.5,17.6,17.6,0,0,1,56.74,19.922Zm6.337,35.865L61.428,49.6a1.172,1.172,0,0,0-1.437-.83l-6.185,1.666,8.463-14.659a19.818,19.818,0,0,0,10.07,3.97Zm25.569-7.02a1.172,1.172,0,0,0-1.437.83l-1.649,6.19L76.3,39.745a19.818,19.818,0,0,0,10.07-3.97l8.463,14.659Z" transform="translate(-50.201 0)" fill="#f68121"/>
        <path id="XMLID_885_" d="M192.564,109.411a2.1,2.1,0,0,0,.534,2.162l1.874,1.826-.442,2.579a2.107,2.107,0,0,0,3.061,2.223l2.315-1.218,2.316,1.217a2.109,2.109,0,0,0,3.06-2.224l-.443-2.579,1.873-1.827a2.109,2.109,0,0,0-1.17-3.6l-2.589-.376L201.8,105.25a2.1,2.1,0,0,0-1.891-1.175h0a2.1,2.1,0,0,0-1.891,1.176l-1.157,2.347-2.589.377A2.1,2.1,0,0,0,192.564,109.411Zm5.239.418a1.172,1.172,0,0,0,.882-.641l1.22-2.473,1.221,2.473a1.172,1.172,0,0,0,.883.641l2.729.4-1.974,1.925a1.172,1.172,0,0,0-.337,1.037l.467,2.718-2.441-1.283a1.172,1.172,0,0,0-1.091,0l-2.441,1.284.465-2.718a1.172,1.172,0,0,0-.337-1.037l-1.975-1.924Z" transform="translate(-175.788 -91.879)" fill="#f68121"/>
        <path id="XMLID_887_" d="M144.766,81.167A14.768,14.768,0,0,0,150.4,52.75a1.172,1.172,0,1,0-.9,2.166,12.422,12.422,0,1,1-9.457-.01,1.172,1.172,0,0,0-.89-2.168,14.768,14.768,0,0,0,5.606,28.43Z" transform="translate(-120.649 -46.479)" fill="#f68121"/>
        <path id="XMLID_888_" d="M247.3,46.344a1.172,1.172,0,1,0-.828-.343A1.181,1.181,0,0,0,247.3,46.344Z" transform="translate(-223.17 -38.844)" fill="#f68121"/>
      </g>
    </g>
  </g>
</svg>
