<svg xmlns="http://www.w3.org/2000/svg" width="60" height="60" viewBox="0 0 60 60">
  <g id="compliance_driven_icon" transform="translate(-435 -120)">
    <rect id="Rectangle_8337" data-name="Rectangle 8337" width="60" height="60" transform="translate(435 120)" fill="#fff" opacity="0"/>
    <g id="check-list" transform="translate(435.001 120)">
      <path id="Path_21074" data-name="Path 21074" d="M32.316,49.867H7.54A5.2,5.2,0,0,1,2.154,44.88V1.994h38.78V30.918a1.08,1.08,0,0,0,2.154,0V7.978H46.32V28.922a1.08,1.08,0,0,0,2.154,0V7.978h3.232V28.922a1.08,1.08,0,0,0,2.154,0V6.981a1.04,1.04,0,0,0-1.077-1h-9.7V1a1.04,1.04,0,0,0-1.077-1H1.077A1.04,1.04,0,0,0,0,1V44.88A7.286,7.286,0,0,0,7.54,51.862H32.316a1,1,0,1,0,0-1.995Zm0,0" transform="translate(0 0)" fill="#f68121"/>
      <path id="Path_21075" data-name="Path 21075" d="M300.532,283.238H298.81a12.042,12.042,0,0,0-.49-1.188l1.221-1.22a1.018,1.018,0,0,0,0-1.438l-4.316-4.316a1.017,1.017,0,0,0-1.438,0l-1.221,1.22a12.165,12.165,0,0,0-1.188-.49v-1.722a1.017,1.017,0,0,0-1.017-1.017h-6.1a1.017,1.017,0,0,0-1.017,1.017v1.722a12.165,12.165,0,0,0-1.188.49l-1.221-1.22a1.017,1.017,0,0,0-1.438,0l-4.316,4.316a1.018,1.018,0,0,0,0,1.438l1.221,1.22a12.043,12.043,0,0,0-.49,1.188h-1.722a1.017,1.017,0,0,0-1.017,1.017v6.1a1.017,1.017,0,0,0,1.017,1.017h1.722a12.049,12.049,0,0,0,.49,1.188l-1.221,1.221a1.018,1.018,0,0,0,0,1.438l4.316,4.316a1.018,1.018,0,0,0,1.438,0l1.221-1.221a12.045,12.045,0,0,0,1.188.49v1.722a1.017,1.017,0,0,0,1.017,1.017h6.1a1.017,1.017,0,0,0,1.017-1.017v-1.722a12.045,12.045,0,0,0,1.188-.49l1.221,1.221a1.018,1.018,0,0,0,1.438,0l4.316-4.316a1.018,1.018,0,0,0,0-1.438l-1.221-1.221a12.048,12.048,0,0,0,.49-1.188h1.722a1.017,1.017,0,0,0,1.017-1.017v-6.1A1.017,1.017,0,0,0,300.532,283.238Zm-1.017,6.1h-1.45a1.016,1.016,0,0,0-.978.739,10.173,10.173,0,0,1-.9,2.182,1.018,1.018,0,0,0,.169,1.214l1.017,1.017-2.873,2.883-1.017-1.017a1.018,1.018,0,0,0-1.214-.169,10.138,10.138,0,0,1-2.182.9,1.017,1.017,0,0,0-.739.979v1.444h-4.074v-1.45a1.017,1.017,0,0,0-.739-.978,10.155,10.155,0,0,1-2.182-.9,1.018,1.018,0,0,0-1.215.169l-1.017,1.017-2.883-2.873,1.017-1.017a1.016,1.016,0,0,0,.169-1.214,10.136,10.136,0,0,1-.9-2.182,1.018,1.018,0,0,0-.974-.745H275.1v-4.069h1.45a1.018,1.018,0,0,0,.979-.739,10.129,10.129,0,0,1,.9-2.182,1.017,1.017,0,0,0-.169-1.215l-1.017-1.017,2.873-2.883,1.017,1.017a1.017,1.017,0,0,0,1.215.169,10.129,10.129,0,0,1,2.182-.9,1.018,1.018,0,0,0,.745-.974V275.1h4.069v1.45a1.017,1.017,0,0,0,.739.979,10.136,10.136,0,0,1,2.182.9,1.016,1.016,0,0,0,1.214-.169l1.017-1.017,2.883,2.873-1.017,1.017a1.018,1.018,0,0,0-.169,1.215,10.153,10.153,0,0,1,.9,2.182,1.017,1.017,0,0,0,.978.739h1.444Zm0,0" transform="translate(-241.55 -241.549)" fill="#f68121"/>
      <path id="Path_21076" data-name="Path 21076" d="M339.921,332.8a7.12,7.12,0,1,0,7.12,7.121A7.12,7.12,0,0,0,339.921,332.8Zm0,12.207a5.086,5.086,0,1,1,5.086-5.086A5.086,5.086,0,0,1,339.921,345.007Zm0,0" transform="translate(-294.163 -294.163)" fill="#f68121"/>
      <path id="Path_21077" data-name="Path 21077" d="M183.893,51.2H171.686a1.017,1.017,0,0,0,0,2.034h12.207a1.017,1.017,0,0,0,0-2.034Zm0,0" transform="translate(-150.774 -45.096)" fill="#f68121"/>
      <path id="Path_21078" data-name="Path 21078" d="M183.893,102.4H171.686a1.017,1.017,0,0,0,0,2.034h12.207a1.017,1.017,0,0,0,0-2.034Zm0,0" transform="translate(-150.774 -90.406)" fill="#f68121"/>
      <path id="Path_21079" data-name="Path 21079" d="M183.893,170.668H171.686a1.017,1.017,0,0,0,0,2.034h12.207a1.017,1.017,0,0,0,0-2.034Zm0,0" transform="translate(-150.774 -150.68)" fill="#f68121"/>
      <path id="Path_21080" data-name="Path 21080" d="M183.893,221.867H171.686a1.017,1.017,0,0,0,0,2.034h12.207a1.017,1.017,0,0,0,0-2.034Zm0,0" transform="translate(-150.774 -195.883)" fill="#f68121"/>
      <path id="Path_21081" data-name="Path 21081" d="M181.857,290.133H171.685a1.017,1.017,0,0,0,0,2.034h10.173a1.017,1.017,0,0,0,0-2.034Zm0,0" transform="translate(-150.755 -256.154)" fill="#f68121"/>
      <path id="Path_21082" data-name="Path 21082" d="M179.823,343.366a1.017,1.017,0,0,0,0-2.034h-8.138a1.017,1.017,0,0,0,0,2.034Zm0,0" transform="translate(-150.738 -301.356)" fill="#f68121"/>
      <path id="Path_21083" data-name="Path 21083" d="M63.109,51.5a1.017,1.017,0,0,0-1.438,0l-.369.369a1.01,1.01,0,0,0-.946-.667H52.217A1.017,1.017,0,0,0,51.2,52.217v8.138a1.017,1.017,0,0,0,1.017,1.017h8.138a1.017,1.017,0,0,0,1.017-1.017V54.672l1.736-1.736a1.018,1.018,0,0,0,0-1.438Zm-3.771,7.84h-6.1v-6.1h6.1v.6L57.3,55.864l-1.315-1.315a1.017,1.017,0,0,0-1.438,1.438l2.034,2.034a1.017,1.017,0,0,0,1.438,0l1.315-1.315Zm0,0" transform="translate(-45.097 -45.096)" fill="#f68121"/>
      <path id="Path_21084" data-name="Path 21084" d="M63.109,170.966a1.017,1.017,0,0,0-1.438,0l-.369.369a1.01,1.01,0,0,0-.946-.667H52.217a1.017,1.017,0,0,0-1.017,1.017v8.138a1.017,1.017,0,0,0,1.017,1.017h8.138a1.017,1.017,0,0,0,1.017-1.017v-5.682l1.736-1.736a1.018,1.018,0,0,0,0-1.438Zm-3.771,7.84h-6.1v-6.1h6.1v.6L57.3,175.333l-1.315-1.315a1.017,1.017,0,0,0-1.438,1.438l2.034,2.034a1.017,1.017,0,0,0,1.438,0l1.315-1.315Zm0,0" transform="translate(-45.097 -150.737)" fill="#f68121"/>
      <path id="Path_21085" data-name="Path 21085" d="M61.67,290.431l-.369.369a1.01,1.01,0,0,0-.946-.667H52.217A1.017,1.017,0,0,0,51.2,291.15v8.138a1.018,1.018,0,0,0,1.017,1.017h8.138a1.018,1.018,0,0,0,1.017-1.017v-5.682l1.736-1.736a1.017,1.017,0,0,0-1.438-1.438Zm-2.332,7.84h-6.1v-6.1h6.1v.6L57.3,294.8l-1.315-1.315a1.017,1.017,0,0,0-1.438,1.438l2.034,2.034a1.017,1.017,0,0,0,1.438,0l1.315-1.315Zm0,0" transform="translate(-45.097 -256.251)" fill="#f68121"/>
    </g>
  </g>
</svg>
