<svg xmlns="http://www.w3.org/2000/svg" width="60" height="60" viewBox="0 0 60 60">
  <g id="enterprise_enabled_icon" transform="translate(-348 -117)">
    <rect id="Rectangle_8337" data-name="Rectangle 8337" width="60" height="60" transform="translate(348 117)" fill="#fff" opacity="0"/>
    <g id="enterprise" transform="translate(348 117)">
      <g id="Group_12199" data-name="Group 12199" transform="translate(20.974 20.1)">
        <g id="Group_12198" data-name="Group 12198" transform="translate(0 0)">
          <rect id="Rectangle_8283" data-name="Rectangle 8283" width="2.038" height="2.038" fill="#f68121"/>
        </g>
      </g>
      <g id="Group_12201" data-name="Group 12201" transform="translate(20.974 23.886)">
        <g id="Group_12200" data-name="Group 12200" transform="translate(0 0)">
          <rect id="Rectangle_8284" data-name="Rectangle 8284" width="2.038" height="2.038" fill="#f68121"/>
        </g>
      </g>
      <g id="Group_12203" data-name="Group 12203" transform="translate(20.974 27.962)">
        <g id="Group_12202" data-name="Group 12202" transform="translate(0 0)">
          <rect id="Rectangle_8285" data-name="Rectangle 8285" width="2.038" height="2.038" fill="#f68121"/>
        </g>
      </g>
      <g id="Group_12205" data-name="Group 12205" transform="translate(20.974 32.038)">
        <g id="Group_12204" data-name="Group 12204" transform="translate(0 0)">
          <rect id="Rectangle_8286" data-name="Rectangle 8286" width="2.038" height="2.038" fill="#f68121"/>
        </g>
      </g>
      <g id="Group_12207" data-name="Group 12207" transform="translate(25.05 20.1)">
        <g id="Group_12206" data-name="Group 12206" transform="translate(0 0)">
          <rect id="Rectangle_8287" data-name="Rectangle 8287" width="2.038" height="2.038" fill="#f68121"/>
        </g>
      </g>
      <g id="Group_12209" data-name="Group 12209" transform="translate(25.05 23.886)">
        <g id="Group_12208" data-name="Group 12208" transform="translate(0 0)">
          <rect id="Rectangle_8288" data-name="Rectangle 8288" width="2.038" height="2.038" fill="#f68121"/>
        </g>
      </g>
      <g id="Group_12211" data-name="Group 12211" transform="translate(25.05 27.962)">
        <g id="Group_12210" data-name="Group 12210" transform="translate(0 0)">
          <rect id="Rectangle_8289" data-name="Rectangle 8289" width="2.038" height="2.038" fill="#f68121"/>
        </g>
      </g>
      <g id="Group_12213" data-name="Group 12213" transform="translate(25.05 32.038)">
        <g id="Group_12212" data-name="Group 12212" transform="translate(0 0)">
          <rect id="Rectangle_8290" data-name="Rectangle 8290" width="2.038" height="2.038" fill="#f68121"/>
        </g>
      </g>
      <g id="Group_12215" data-name="Group 12215" transform="translate(29.127 20.1)">
        <g id="Group_12214" data-name="Group 12214" transform="translate(0 0)">
          <rect id="Rectangle_8291" data-name="Rectangle 8291" width="1.747" height="2.038" fill="#f68121"/>
        </g>
      </g>
      <g id="Group_12217" data-name="Group 12217" transform="translate(29.127 23.886)">
        <g id="Group_12216" data-name="Group 12216" transform="translate(0 0)">
          <rect id="Rectangle_8292" data-name="Rectangle 8292" width="1.747" height="2.038" fill="#f68121"/>
        </g>
      </g>
      <g id="Group_12219" data-name="Group 12219" transform="translate(29.127 27.962)">
        <g id="Group_12218" data-name="Group 12218" transform="translate(0 0)">
          <rect id="Rectangle_8293" data-name="Rectangle 8293" width="1.747" height="2.038" fill="#f68121"/>
        </g>
      </g>
      <g id="Group_12221" data-name="Group 12221" transform="translate(29.127 32.038)">
        <g id="Group_12220" data-name="Group 12220" transform="translate(0 0)">
          <rect id="Rectangle_8294" data-name="Rectangle 8294" width="1.747" height="2.038" fill="#f68121"/>
        </g>
      </g>
      <g id="Group_12223" data-name="Group 12223" transform="translate(32.912 20.1)">
        <g id="Group_12222" data-name="Group 12222" transform="translate(0 0)">
          <rect id="Rectangle_8295" data-name="Rectangle 8295" width="2.038" height="2.038" fill="#f68121"/>
        </g>
      </g>
      <g id="Group_12225" data-name="Group 12225" transform="translate(25.05 16.024)">
        <g id="Group_12224" data-name="Group 12224" transform="translate(0 0)">
          <rect id="Rectangle_8296" data-name="Rectangle 8296" width="2.038" height="2.038" fill="#f68121"/>
        </g>
      </g>
      <g id="Group_12227" data-name="Group 12227" transform="translate(29.127 16.024)">
        <g id="Group_12226" data-name="Group 12226" transform="translate(0 0)">
          <rect id="Rectangle_8297" data-name="Rectangle 8297" width="1.747" height="2.038" fill="#f68121"/>
        </g>
      </g>
      <g id="Group_12229" data-name="Group 12229" transform="translate(32.912 16.024)">
        <g id="Group_12228" data-name="Group 12228" transform="translate(0 0)">
          <rect id="Rectangle_8298" data-name="Rectangle 8298" width="2.038" height="2.038" fill="#f68121"/>
        </g>
      </g>
      <g id="Group_12231" data-name="Group 12231" transform="translate(32.912 23.886)">
        <g id="Group_12230" data-name="Group 12230" transform="translate(0 0)">
          <rect id="Rectangle_8299" data-name="Rectangle 8299" width="2.038" height="2.038" fill="#f68121"/>
        </g>
      </g>
      <g id="Group_12233" data-name="Group 12233" transform="translate(32.912 27.962)">
        <g id="Group_12232" data-name="Group 12232" transform="translate(0 0)">
          <rect id="Rectangle_8300" data-name="Rectangle 8300" width="2.038" height="2.038" fill="#f68121"/>
        </g>
      </g>
      <g id="Group_12235" data-name="Group 12235" transform="translate(32.912 32.038)">
        <g id="Group_12234" data-name="Group 12234" transform="translate(0 0)">
          <rect id="Rectangle_8301" data-name="Rectangle 8301" width="2.038" height="2.038" fill="#f68121"/>
        </g>
      </g>
      <g id="Group_12237" data-name="Group 12237" transform="translate(36.988 20.1)">
        <g id="Group_12236" data-name="Group 12236" transform="translate(0 0)">
          <rect id="Rectangle_8302" data-name="Rectangle 8302" width="2.038" height="2.038" fill="#f68121"/>
        </g>
      </g>
      <g id="Group_12239" data-name="Group 12239" transform="translate(36.988 23.886)">
        <g id="Group_12238" data-name="Group 12238" transform="translate(0 0)">
          <rect id="Rectangle_8303" data-name="Rectangle 8303" width="2.038" height="2.038" fill="#f68121"/>
        </g>
      </g>
      <g id="Group_12241" data-name="Group 12241" transform="translate(36.988 27.962)">
        <g id="Group_12240" data-name="Group 12240" transform="translate(0 0)">
          <rect id="Rectangle_8304" data-name="Rectangle 8304" width="2.038" height="2.038" fill="#f68121"/>
        </g>
      </g>
      <g id="Group_12243" data-name="Group 12243" transform="translate(36.988 32.038)">
        <g id="Group_12242" data-name="Group 12242" transform="translate(0 0)">
          <rect id="Rectangle_8305" data-name="Rectangle 8305" width="2.038" height="2.038" fill="#f68121"/>
        </g>
      </g>
      <g id="Group_12245" data-name="Group 12245" transform="translate(0 0)">
        <g id="Group_12244" data-name="Group 12244">
          <path id="Path_21072" data-name="Path 21072" d="M59,15H44V1a1,1,0,0,0-1-1H17a1,1,0,0,0-1,1h0V15H1a1,1,0,0,0-1,1H0V52a1,1,0,0,0,1,1H3.09A6,6,0,0,0,3,54v5a1,1,0,0,0,1,1H56a1,1,0,0,0,1-1h0V54a5.975,5.975,0,0,0-.09-1H59a1,1,0,0,0,1-1h0V16A1,1,0,0,0,59,15ZM43,43a2,2,0,1,1-2-2A2,2,0,0,1,43,43ZM19,41a2,2,0,1,1-2,2A2,2,0,0,1,19,41ZM13,58H5V54a4,4,0,1,1,8,0ZM7,46a2,2,0,1,1,2,2A2,2,0,0,1,7,46Zm6.152,3.678a6.028,6.028,0,0,0-1.258-.931,4,4,0,1,0-5.787,0A6.039,6.039,0,0,0,3.812,51H2V17H16V40.382a3.946,3.946,0,0,0,.107,5.365A6.017,6.017,0,0,0,13.152,49.678ZM23,58H15V51a4,4,0,0,1,8,0Zm12,0H25V51a5,5,0,0,1,10,0ZM27,41a3,3,0,1,1,3,3A3,3,0,0,1,27,41Zm9.09,6.562a7.044,7.044,0,0,0-2.869-2.77,5,5,0,1,0-6.442,0,7.044,7.044,0,0,0-2.869,2.77,6.04,6.04,0,0,0-2.016-1.815A3.971,3.971,0,0,0,18,39.142V2H42V39.142a3.982,3.982,0,0,0-3.894,6.605A6.04,6.04,0,0,0,36.09,47.562ZM45,54v4H37V51a4,4,0,0,1,8,0Zm10,4H47V54a4,4,0,1,1,8,0ZM49,46a2,2,0,1,1,2,2A2,2,0,0,1,49,46Zm9,5H56.189a6.039,6.039,0,0,0-2.295-2.253,4,4,0,1,0-5.787,0,6.025,6.025,0,0,0-1.258.931,6.017,6.017,0,0,0-2.955-3.931A3.946,3.946,0,0,0,44,40.382V17H58V51Z" transform="translate(0 0)" fill="#f68121"/>
        </g>
      </g>
      <g id="Group_12247" data-name="Group 12247" transform="translate(46.888 23.012)">
        <g id="Group_12246" data-name="Group 12246" transform="translate(0 0)">
          <rect id="Rectangle_8306" data-name="Rectangle 8306" width="2.038" height="16.014" fill="#f68121"/>
        </g>
      </g>
      <g id="Group_12249" data-name="Group 12249" transform="translate(53.002 23.012)">
        <g id="Group_12248" data-name="Group 12248" transform="translate(0 0)">
          <rect id="Rectangle_8307" data-name="Rectangle 8307" width="2.038" height="16.014" fill="#f68121"/>
        </g>
      </g>
      <g id="Group_12251" data-name="Group 12251" transform="translate(4.96 23.012)">
        <g id="Group_12250" data-name="Group 12250" transform="translate(0 0)">
          <rect id="Rectangle_8308" data-name="Rectangle 8308" width="2.038" height="16.014" fill="#f68121"/>
        </g>
      </g>
      <g id="Group_12253" data-name="Group 12253" transform="translate(11.074 23.012)">
        <g id="Group_12252" data-name="Group 12252" transform="translate(0 0)">
          <rect id="Rectangle_8309" data-name="Rectangle 8309" width="2.038" height="16.014" fill="#f68121"/>
        </g>
      </g>
      <g id="Group_12255" data-name="Group 12255" transform="translate(23 4)">
        <g id="Group_12254" data-name="Group 12254">
          <path id="Path_21073" data-name="Path 21073" d="M197,32H185a1,1,0,0,0-1,1h0v8a1,1,0,0,0,1,1h12a1,1,0,0,0,1-1h0V33A1,1,0,0,0,197,32Zm-1,8H186V34h10Z" transform="translate(-184 -32)" fill="#f68121"/>
        </g>
      </g>
    </g>
  </g>
</svg>
